<svg width="162" height="33" viewBox="0 0 162 33" fill="none" xmlns="http://www.w3.org/2000/svg">
<g clip-path="url(#clip0_181_1016)">
<path d="M29.3231 32.3813C20.8331 33.2063 12.343 33.2063 3.85294 32.3813C2.25069 32.2184 0.782827 30.7604 0.621131 29.1667C-0.208346 20.7219 -0.208346 12.2772 0.621131 3.83238C0.784927 2.23867 2.25069 0.778646 3.85294 0.617813C12.343 -0.20724 20.8331 -0.20724 29.3231 0.617813C30.9254 0.780734 32.3932 2.23867 32.5549 3.83238C33.3844 12.2772 33.3844 20.7219 32.5549 29.1667C32.3911 30.7604 30.9254 32.2204 29.3231 32.3813Z" fill="#EEEDCF"/>
<path d="M15.389 25.7616C16.7958 25.7616 17.9363 24.6273 17.9363 23.228C17.9363 21.8287 16.7958 20.6943 15.389 20.6943C13.9822 20.6943 12.8418 21.8287 12.8418 23.228C12.8418 24.6273 13.9822 25.7616 15.389 25.7616Z" fill="#6D974D"/>
<path d="M19.2216 15.021L14.7051 14.2046C14.4678 14.1617 14.2404 14.3183 14.1973 14.5544C14.1542 14.7905 14.3116 15.0166 14.5489 15.0595L19.0654 15.876C19.3028 15.9189 19.5302 15.7623 19.5733 15.5262C19.6164 15.2901 19.459 15.0639 19.2216 15.021Z" fill="#6D974D"/>
<path d="M22.4264 9.67991L13.5959 8.08369C13.2388 8.01913 12.8966 8.25479 12.8317 8.61004L12.7423 9.09915C12.6774 9.4544 12.9143 9.79472 13.2715 9.85928L22.102 11.4555C22.4592 11.5201 22.8013 11.2844 22.8662 10.9292L22.9556 10.44C23.0205 10.0848 22.7836 9.74447 22.4264 9.67991Z" fill="#6D974D"/>
<path d="M18.9371 19.9027L13.2491 18.8746C13.0117 18.8317 12.7844 18.9883 12.7412 19.2243C12.6981 19.4604 12.8555 19.6866 13.0929 19.7295L18.7809 20.7576C19.0182 20.8005 19.2456 20.6439 19.2887 20.4079C19.3318 20.1718 19.1744 19.9456 18.9371 19.9027Z" fill="#6D974D"/>
<path d="M17.0215 19.076L15.3289 18.7689C15.1294 18.7334 14.9824 18.5601 14.9824 18.3574V16.1204C14.9803 15.8593 15.2176 15.6609 15.478 15.7068L17.9665 16.1559C18.2247 16.2019 18.378 16.4713 18.2856 16.7157L17.4919 18.8086C17.4205 18.9987 17.2231 19.1094 17.0215 19.0739V19.076Z" fill="#6D974D"/>
<path d="M19.0996 14.5166L15.0005 13.7751C14.8494 13.748 14.7234 13.6456 14.6667 13.5057L13.6944 11.1475C13.56 10.8216 13.8414 10.477 14.19 10.5397L21.0064 11.772C21.355 11.8347 21.4957 12.2566 21.2542 12.5135L19.5091 14.3809C19.4041 14.4916 19.2508 14.5438 19.1017 14.5166H19.0996Z" fill="#6D974D"/>
<path d="M48.8688 9.27162C50.5949 9.27162 54.4315 9.93793 54.4315 12.6428V14.5415H51.1829V13.7541C51.1829 12.9269 49.883 12.6032 48.9507 12.6032C46.8402 12.6032 45.1351 13.9567 45.1351 16.5801C45.1351 18.9425 46.9011 20.8599 49.0326 20.8599C51.5693 20.8599 53.1736 19.0219 53.1736 19.0219L55.0216 21.6056C55.0216 21.6056 52.8293 24.1894 48.9717 24.1894C44.3833 24.1894 41.3594 20.9184 41.3594 16.578C41.3594 12.2376 44.5471 9.26953 48.8709 9.26953L48.8688 9.27162Z" fill="#6D974D"/>
<path d="M57.008 12.887C57.008 12.605 56.8463 12.4421 56.5607 12.4421H55.79V9.51367H59.0386C60.0739 9.51367 60.5212 9.95857 60.5212 10.9883V14.0776C60.5212 14.6018 60.4813 14.9653 60.4813 14.9653H60.5212C61.1092 13.9355 62.3272 13.3089 63.7089 13.3089C65.8194 13.3089 67.4636 14.2781 67.4636 17.2065V20.5777C67.4636 20.8597 67.6253 21.0226 67.9109 21.0226H68.6816V23.951H65.433C64.3977 23.951 63.9504 23.5061 63.9504 22.4764V17.8519C63.9504 16.8827 63.564 16.4796 62.7933 16.4796C61.7182 16.4796 61.0063 17.1062 60.7018 18.0148C60.559 18.418 60.5191 18.8629 60.5191 19.3475V23.951H57.008V12.887Z" fill="#6D974D"/>
<path d="M74.9714 13.3115C78.0562 13.3115 79.8033 15.4525 79.8033 18.3391C79.8033 18.6817 79.7214 19.3898 79.7214 19.3898H73.1234C73.388 20.7015 74.4422 21.2884 75.5594 21.2884C77.0608 21.2884 78.3397 20.1981 78.3397 20.1981L79.7403 22.5396C79.7403 22.5396 78.0562 24.1959 75.2738 24.1959C71.538 24.1959 69.5283 21.5098 69.5283 18.7443C69.5283 15.6948 71.5989 13.3136 74.9693 13.3136L74.9714 13.3115ZM76.2103 17.2676C76.2103 16.6222 75.7022 15.935 74.9714 15.935C73.9571 15.935 73.4489 16.501 73.2263 17.2676H76.2103Z" fill="#6D974D"/>
<path d="M82.4619 20.0531C82.4619 20.0531 83.9235 21.5466 85.5278 21.5466C86.036 21.5466 86.3195 21.4045 86.3195 21.0411C86.3195 20.1722 81.0823 19.8902 81.0823 16.519C81.0823 14.2778 83.1738 13.3086 85.385 13.3086C87.0902 13.3086 89.4442 13.7932 89.4442 15.671V16.9033H86.3993V16.3978C86.3993 16.1159 85.952 15.9133 85.4459 15.9133C84.9398 15.9133 84.5115 16.0741 84.5115 16.3978C84.5115 17.4673 89.8096 17.3273 89.8096 20.8197C89.8096 22.9189 87.9617 24.1909 85.5257 24.1909C82.5207 24.1909 80.8975 22.2923 80.8975 22.2923L82.4598 20.051L82.4619 20.0531Z" fill="#6D974D"/>
<path d="M92.4277 20.0531C92.4277 20.0531 93.8893 21.5466 95.4937 21.5466C96.0018 21.5466 96.2853 21.4045 96.2853 21.0411C96.2853 20.1722 91.0481 19.8902 91.0481 16.519C91.0481 14.2778 93.1396 13.3086 95.3509 13.3086C97.056 13.3086 99.41 13.7932 99.41 15.671V16.9033H96.3651V16.3978C96.3651 16.1159 95.9178 15.9133 95.4118 15.9133C94.9057 15.9133 94.4773 16.0741 94.4773 16.3978C94.4773 17.4673 99.7754 17.3273 99.7754 20.8197C99.7754 22.9189 97.9275 24.1909 95.4916 24.1909C92.4865 24.1909 90.8633 22.2923 90.8633 22.2923L92.4256 20.051L92.4277 20.0531Z" fill="#6D974D"/>
<path d="M108.259 19.2869C108.259 19.2869 109.76 20.9829 111.587 20.9829C112.318 20.9829 113.049 20.7197 113.049 19.9135C113.049 18.3177 106.472 18.136 106.472 13.6138C106.472 11.0092 108.765 9.27344 111.648 9.27344C113.576 9.27344 116.276 10.2029 116.276 12.4024V13.9773H113.028V13.3507C113.028 12.8264 112.276 12.5026 111.606 12.5026C110.875 12.5026 110.124 12.8055 110.124 13.4718C110.124 15.2284 116.701 14.9861 116.701 19.7318C116.701 22.1338 114.813 24.1933 111.545 24.1933C108.278 24.1933 106.247 21.8101 106.247 21.8101L108.257 19.2869H108.259Z" fill="#6D974D"/>
<path d="M118.834 12.887C118.834 12.605 118.672 12.4421 118.387 12.4421H117.616V9.51367H120.865C121.9 9.51367 122.347 9.95857 122.347 10.9883V14.0776C122.347 14.6018 122.307 14.9653 122.307 14.9653H122.347C122.935 13.9355 124.153 13.3089 125.535 13.3089C127.646 13.3089 129.29 14.2781 129.29 17.2065V20.5777C129.29 20.8597 129.451 21.0226 129.737 21.0226H130.508V23.951H127.259C126.224 23.951 125.777 23.5061 125.777 22.4764V17.8519C125.777 16.8827 125.39 16.4796 124.62 16.4796C123.544 16.4796 122.832 17.1062 122.528 18.0148C122.385 18.418 122.345 18.8629 122.345 19.3475V23.951H118.834V12.887Z" fill="#6D974D"/>
<path d="M137.488 17.4088H137.631V17.2876C137.631 16.2976 137.164 15.9341 136.291 15.9341C135.844 15.9341 135.377 16.0344 135.377 16.4396V16.9033H132.129V15.7524C132.129 13.4297 135.092 13.3086 136.291 13.3086C139.945 13.3086 141.142 15.1655 141.142 17.5487V20.5774C141.142 20.8594 141.303 21.0223 141.589 21.0223H142.36V23.9507H139.315C138.3 23.9507 137.935 23.3241 137.935 22.8604V22.6787H137.895C137.895 22.6787 137.164 24.193 134.972 24.193C133.023 24.193 131.419 22.9001 131.419 20.8406C131.419 17.7513 135.865 17.4088 137.488 17.4088ZM135.944 21.5278C136.858 21.5278 137.67 20.5377 137.67 19.6897V19.5289H137.345C136.228 19.5289 134.949 19.8317 134.949 20.6589C134.949 21.1435 135.253 21.5278 135.944 21.5278Z" fill="#6D974D"/>
<path d="M144.307 16.9242C144.307 16.6422 144.145 16.4793 143.86 16.4793H143.089V13.5509H146.195C147.148 13.5509 147.677 13.9352 147.677 14.8835V15.4286C147.677 15.7524 147.637 15.9529 147.637 15.9529H147.677C148.125 14.5388 149.443 13.3691 151.006 13.3691C151.209 13.3691 151.411 13.4088 151.411 13.4088V16.8406C151.411 16.8406 151.127 16.7801 150.701 16.7801C149.87 16.7801 148.509 17.0432 148.001 18.5973C147.879 18.9816 147.818 19.4453 147.818 20.0113V23.9486H144.307V16.9221V16.9242Z" fill="#6D974D"/>
<path d="M157.44 13.3115C160.525 13.3115 162.272 15.4525 162.272 18.3391C162.272 18.6817 162.19 19.3898 162.19 19.3898H155.592C155.857 20.7015 156.911 21.2884 158.028 21.2884C159.53 21.2884 160.808 20.1981 160.808 20.1981L162.209 22.5396C162.209 22.5396 160.525 24.1959 157.743 24.1959C154.007 24.1959 151.997 21.5098 151.997 18.7443C151.997 15.6948 154.068 13.3136 157.438 13.3136L157.44 13.3115ZM158.679 17.2676C158.679 16.6222 158.171 15.935 157.44 15.935C156.426 15.935 155.918 16.501 155.695 17.2676H158.679Z" fill="#6D974D"/>
</g>
<defs>
<clipPath id="clip0_181_1016">
<rect width="162" height="33" fill="white"/>
</clipPath>
</defs>
</svg>
