<svg width="34" height="33" viewBox="0 0 34 33" fill="none" xmlns="http://www.w3.org/2000/svg">
<path d="M29.3231 32.3813C20.8331 33.2063 12.343 33.2063 3.85294 32.3813C2.25069 32.2184 0.782827 30.7604 0.621131 29.1667C-0.208346 20.7219 -0.208346 12.2772 0.621131 3.83238C0.784927 2.23867 2.25069 0.778646 3.85294 0.617813C12.343 -0.20724 20.8331 -0.20724 29.3231 0.617813C30.9254 0.780734 32.3932 2.23867 32.5549 3.83238C33.3844 12.2772 33.3844 20.7219 32.5549 29.1667C32.3911 30.7604 30.9254 32.2204 29.3231 32.3813Z" fill="#EEEDCF"/>
<path d="M15.389 25.7616C16.7958 25.7616 17.9363 24.6273 17.9363 23.228C17.9363 21.8287 16.7958 20.6943 15.389 20.6943C13.9822 20.6943 12.8418 21.8287 12.8418 23.228C12.8418 24.6273 13.9822 25.7616 15.389 25.7616Z" fill="#6D974D"/>
<path d="M19.2216 15.021L14.7051 14.2046C14.4678 14.1617 14.2404 14.3183 14.1973 14.5544C14.1542 14.7905 14.3116 15.0166 14.5489 15.0595L19.0654 15.876C19.3028 15.9189 19.5302 15.7623 19.5733 15.5262C19.6164 15.2901 19.459 15.0639 19.2216 15.021Z" fill="#6D974D"/>
<path d="M22.4264 9.67991L13.5959 8.08369C13.2388 8.01913 12.8966 8.25479 12.8317 8.61004L12.7423 9.09915C12.6774 9.4544 12.9143 9.79472 13.2715 9.85928L22.102 11.4555C22.4592 11.5201 22.8013 11.2844 22.8662 10.9292L22.9556 10.44C23.0205 10.0848 22.7836 9.74447 22.4264 9.67991Z" fill="#6D974D"/>
<path d="M18.9371 19.9027L13.2491 18.8746C13.0117 18.8317 12.7844 18.9883 12.7412 19.2243C12.6981 19.4604 12.8555 19.6866 13.0929 19.7295L18.7809 20.7576C19.0182 20.8005 19.2456 20.6439 19.2887 20.4079C19.3318 20.1718 19.1744 19.9456 18.9371 19.9027Z" fill="#6D974D"/>
<path d="M17.0215 19.076L15.3289 18.7689C15.1294 18.7334 14.9824 18.5601 14.9824 18.3574V16.1204C14.9803 15.8593 15.2176 15.6609 15.478 15.7068L17.9665 16.1559C18.2247 16.2019 18.378 16.4713 18.2856 16.7157L17.4919 18.8086C17.4205 18.9987 17.2231 19.1094 17.0215 19.0739V19.076Z" fill="#6D974D"/>
<path d="M19.0996 14.5166L15.0005 13.7751C14.8494 13.748 14.7234 13.6456 14.6667 13.5057L13.6944 11.1475C13.56 10.8216 13.8414 10.477 14.19 10.5397L21.0064 11.772C21.355 11.8347 21.4957 12.2566 21.2542 12.5135L19.5091 14.3809C19.4041 14.4916 19.2508 14.5438 19.1017 14.5166H19.0996Z" fill="#6D974D"/>
</svg>
